<?xml version="1.0" encoding="UTF-8" standalone="no"?>
<svg
   xmlns:dc="http://purl.org/dc/elements/1.1/"
   xmlns:cc="http://creativecommons.org/ns#"
   xmlns:rdf="http://www.w3.org/1999/02/22-rdf-syntax-ns#"
   xmlns:svg="http://www.w3.org/2000/svg"
   xmlns="http://www.w3.org/2000/svg"
   xmlns:sodipodi="http://sodipodi.sourceforge.net/DTD/sodipodi-0.dtd"
   xmlns:inkscape="http://www.inkscape.org/namespaces/inkscape"
   version="1.1"
   id="Layer_1"
   x="0px"
   y="0px"
   width="46.553307"
   height="46.200966"
   viewBox="0 0 46.553307 46.200966"
   enable-background="new 0 0 100 100"
   xml:space="preserve"
   inkscape:version="1.0.2 (e86c870879, 2021-01-15)"
   sodipodi:docname="search-highlight.svg"><metadata
   id="metadata15"><rdf:RDF><cc:Work
       rdf:about=""><dc:format>image/svg+xml</dc:format><dc:type
         rdf:resource="http://purl.org/dc/dcmitype/StillImage" /><dc:title></dc:title></cc:Work></rdf:RDF></metadata><defs
   id="defs13" /><sodipodi:namedview
   pagecolor="#ffffff"
   bordercolor="#666666"
   borderopacity="1"
   objecttolerance="10"
   gridtolerance="10"
   guidetolerance="10"
   inkscape:pageopacity="0"
   inkscape:pageshadow="2"
   inkscape:window-width="1920"
   inkscape:window-height="1012"
   id="namedview11"
   showgrid="false"
   fit-margin-top="0"
   fit-margin-left="0"
   fit-margin-right="0"
   fit-margin-bottom="0"
   inkscape:zoom="9.44"
   inkscape:cx="26.413131"
   inkscape:cy="28.346216"
   inkscape:window-x="0"
   inkscape:window-y="0"
   inkscape:window-maximized="1"
   inkscape:current-layer="Layer_1"
   inkscape:document-rotation="0" />
<g
   id="XMLID_13_"
   transform="translate(-29.461,-26.738)">
	<g
   id="g4">
		<g
   id="XMLID_10_">
			<g
   id="g7">
				<path
   d="M 69.902,72.704 58.967,61.769 c -2.997,1.961 -6.579,3.111 -10.444,3.111 -10.539,0 -19.062,-8.542 -19.062,-19.081 0,-10.519 8.522,-19.061 19.062,-19.061 10.521,0 19.06,8.542 19.06,19.061 0,3.679 -1.036,7.107 -2.828,10.011 l 11.013,11.011 c 0.583,0.567 0.094,1.981 -1.076,3.148 l -1.64,1.644 c -1.17,1.167 -2.584,1.656 -3.15,1.091 z M 61.249,45.799 c 0,-7.033 -5.695,-12.727 -12.727,-12.727 -7.033,0 -12.745,5.694 -12.745,12.727 0,7.033 5.712,12.745 12.745,12.745 7.032,0 12.727,-5.711 12.727,-12.745 z"
   id="path9"
   inkscape:connector-curvature="0" />
			</g>
		</g>
	</g>
</g>
<path
   style="fill:#a0a0a0;stroke:none;stroke-width:0.423729"
   d="m 35.13568,40.293882 -5.526441,-5.526441 -2.946136,1.395085 c -2.778614,1.315758 -3.212421,1.395085 -7.62913,1.395085 -4.550328,0 -4.773306,-0.04463 -7.870996,-1.575597 C 5.389097,33.128408 1.5626578,28.085335 0.51042339,21.942434 -0.81834294,14.18515 3.5777836,5.7729636 10.793237,2.2658057 22.255774,-3.3056979 35.427919,3.619248 37.611118,16.364677 c 0.5768,3.367338 0.03352,7.137544 -1.516319,10.522842 l -1.05396,2.302154 5.672809,5.661133 c 3.120047,3.113622 5.67281,5.902762 5.67281,6.198086 0,0.870836 -4.008081,4.771431 -4.902915,4.771431 -0.48827,0 -3.062833,-2.241411 -6.347863,-5.526441 z M 23.617979,31.169856 c 2.575804,-0.877664 5.5814,-3.571114 6.998692,-6.271843 0.97472,-1.857382 1.140112,-2.691075 1.145198,-5.772605 0.0048,-2.895223 -0.182436,-3.98401 -0.954447,-5.550787 -4.819021,-9.7800923 -18.683925,-9.7800923 -23.5029462,0 -0.7720105,1.566777 -0.959225,2.655564 -0.9544466,5.550787 0.00508,3.08153 0.1704784,3.915223 1.1451979,5.772605 1.3708271,2.612187 4.4035959,5.387307 6.8252249,6.245387 2.362851,0.837253 6.880245,0.850107 9.297527,0.02646 z"
   id="path11" /></svg>
