<?xml version="1.0" encoding="UTF-8" standalone="no"?>
<svg
   xmlns:dc="http://purl.org/dc/elements/1.1/"
   xmlns:cc="http://creativecommons.org/ns#"
   xmlns:rdf="http://www.w3.org/1999/02/22-rdf-syntax-ns#"
   xmlns:svg="http://www.w3.org/2000/svg"
   xmlns="http://www.w3.org/2000/svg"
   xmlns:sodipodi="http://sodipodi.sourceforge.net/DTD/sodipodi-0.dtd"
   xmlns:inkscape="http://www.inkscape.org/namespaces/inkscape"
   version="1.1"
   id="Layer_1"
   x="0px"
   y="0px"
   width="46.553307"
   height="46.200966"
   viewBox="0 0 46.553307 46.200966"
   enable-background="new 0 0 100 100"
   xml:space="preserve"
   inkscape:version="1.0.2 (e86c870879, 2021-01-15)"
   sodipodi:docname="search-highlight.svg"><metadata
   id="metadata15"><rdf:RDF><cc:Work
       rdf:about=""><dc:format>image/svg+xml</dc:format><dc:type
         rdf:resource="http://purl.org/dc/dcmitype/StillImage" /><dc:title /></cc:Work></rdf:RDF></metadata><defs
   id="defs13" /><sodipodi:namedview
   pagecolor="#ffffff"
   bordercolor="#666666"
   borderopacity="1"
   objecttolerance="10"
   gridtolerance="10"
   guidetolerance="10"
   inkscape:pageopacity="0"
   inkscape:pageshadow="2"
   inkscape:window-width="1920"
   inkscape:window-height="1012"
   id="namedview11"
   showgrid="false"
   fit-margin-top="0"
   fit-margin-left="0"
   fit-margin-right="0"
   fit-margin-bottom="0"
   inkscape:zoom="13.350176"
   inkscape:cx="5.6929149"
   inkscape:cy="22.52931"
   inkscape:window-x="0"
   inkscape:window-y="0"
   inkscape:window-maximized="1"
   inkscape:current-layer="g4"
   inkscape:document-rotation="0" />
<g
   id="XMLID_13_"
   transform="translate(-29.461,-26.738)">
	<g
   id="g4"
   style="fill:#919191;fill-opacity:1">
		<g
   id="XMLID_10_"
   style="fill:#919191;fill-opacity:1;stroke:#000000;stroke-width:3;stroke-miterlimit:4;stroke-dasharray:none;stroke-opacity:1"
   transform="matrix(0.93555124,0,0,0.94305907,3.3909823,2.9373838)">
			<g
   id="g7"
   style="fill:#919191;fill-opacity:1;stroke:#000000;stroke-width:3;stroke-miterlimit:4;stroke-dasharray:none;stroke-opacity:1">
				<path
   d="M 69.902,72.704 58.967,61.769 c -2.997,1.961 -6.579,3.111 -10.444,3.111 -10.539,0 -19.062,-8.542 -19.062,-19.081 0,-10.519 8.522,-19.061 19.062,-19.061 10.521,0 19.06,8.542 19.06,19.061 0,3.679 -1.036,7.107 -2.828,10.011 l 11.013,11.011 c 0.583,0.567 0.094,1.981 -1.076,3.148 l -1.64,1.644 c -1.17,1.167 -2.584,1.656 -3.15,1.091 z M 61.249,45.799 c 0,-7.033 -5.695,-12.727 -12.727,-12.727 -7.033,0 -12.745,5.694 -12.745,12.727 0,7.033 5.712,12.745 12.745,12.745 7.032,0 12.727,-5.711 12.727,-12.745 z"
   id="path9"
   inkscape:connector-curvature="0"
   style="fill:#919191;fill-opacity:1;stroke:#000000;stroke-width:3;stroke-miterlimit:4;stroke-dasharray:none;stroke-opacity:1" />
			</g>
		</g>
	</g>
</g>
</svg>
